<?xml version="1.0" encoding="utf-8"?>
<!-- Generator: Adobe Illustrator 12.0.0, SVG Export Plug-In . SVG Version: 6.00 Build 51448)  -->
<!DOCTYPE svg PUBLIC "-//W3C//DTD SVG 1.1//EN" "http://www.w3.org/Graphics/SVG/1.1/DTD/svg11.dtd" [
	<!ENTITY ns_svg "http://www.w3.org/2000/svg">
	<!ENTITY ns_xlink "http://www.w3.org/1999/xlink">
]>
<svg  version="1.1" id="Layer_1" xmlns="&ns_svg;" xmlns:xlink="&ns_xlink;" width="187.087" height="58.32"
	 viewBox="0 0 187.087 58.32" overflow="visible" enable-background="new 0 0 187.087 58.32" xml:space="preserve">
<g>
	
		<path fill-rule="evenodd" clip-rule="evenodd" fill="#FFFFFF" stroke="#000000" stroke-width="0.3506" stroke-miterlimit="2.6131" d="
		M92.972,57.264c18.982,0,34.371-12.779,34.371-28.544c0-15.764-15.389-28.544-34.371-28.544c-18.981,0-34.37,12.78-34.37,28.544
		C58.602,44.484,73.991,57.264,92.972,57.264L92.972,57.264z"/>
	
		<path fill-rule="evenodd" clip-rule="evenodd" fill="#FFFFFF" stroke="#000000" stroke-width="0.3506" stroke-miterlimit="2.6131" d="
		M92.972,55.407c17.962,0,32.525-11.948,32.525-26.688c0-14.739-14.563-26.688-32.525-26.688S60.448,13.981,60.448,28.72
		C60.448,43.459,75.01,55.407,92.972,55.407L92.972,55.407z"/>
	<path fill-rule="evenodd" clip-rule="evenodd" d="M71.442,36.433c-1.468,0.82-5.545,1.969-6.688-0.657
		c-1.631,0.821-5.056,1.478-6.688-0.656c-2.773,0.656-5.872,1.97-7.014-1.148c-2.447,0.656-8.482,2.134-9.134-1.805
		c-3.588,0.492-8.808,0.82-9.46-2.954c-3.099,0-8.481-0.492-8.481-4.102c-3.099,0-8.482-2.133-7.829-4.595
		c-2.773-0.328-6.525-3.282-6.525-5.251c-2.772-0.821-5.872-2.954-5.219-5.744C2.773,8.536,0,7.387,0,5.747
		c0-1.641,1.305-2.954,2.773-2.954c1.468,0,7.014,0.821,8.971,0.821c1.958,0,25.608-0.492,31.154-0.165
		c5.546,0.329,12.56,0.165,15.985-0.164s18.036-1.124,20.063,2.954c1.468,2.954,0.327,3.938-0.979,5.087
		c-1.305,1.149-5.709,3.282-5.709,10.174S73.073,32.002,71.442,36.433L71.442,36.433z"/>
	<path fill-rule="evenodd" clip-rule="evenodd" fill="#FFFFFF" d="M5.22,4.434c5.056,0,16.8,0.328,19.083,0.328
		c2.284,0,18.432,1.805,20.959,2.625c1.142,0.329,1.387,1.477,0,1.559c-1.386,0.082-18.023,0.329-20.47,0.329
		S5.592,9.508,3.344,6.567C1.712,4.434,3.751,4.516,5.22,4.434L5.22,4.434z"/>
	<path fill-rule="evenodd" clip-rule="evenodd" fill="#FFFFFF" d="M8.237,10.833c2.936,0.082,17.615,0.164,19.328,0.082
		c1.712-0.082,15.006-0.82,16.556-0.903c1.549-0.082,3.018,0.328,3.018,0.821c0,0.492-0.326,0.902-2.121,1.313
		c-1.794,0.41-18.35,2.297-30.909,2.051c-2.365,0.083-5.545-1.148-6.361-2.297C6.932,10.751,7.829,10.833,8.237,10.833L8.237,10.833
		z"/>
	<path fill-rule="evenodd" clip-rule="evenodd" fill="#FFFFFF" d="M13.946,16.249c2.039,0,26.097-1.805,31.154-2.872
		c1.713-0.164,2.854-0.246,3.018,0.492s0.082,1.066-1.387,1.477c-1.468,0.41-19.328,3.774-28.381,3.938
		C15.332,19.202,11.825,16.331,13.946,16.249L13.946,16.249z"/>
	<path fill-rule="evenodd" clip-rule="evenodd" fill="#FFFFFF" d="M20.063,21.335c2.854-0.328,21.856-3.364,26.995-4.759
		c2.039-0.492,3.018-0.246,3.262,0.328c0.245,0.575,0.245,1.559-1.223,2.051c-1.468,0.493-18.268,4.431-21.367,4.595
		s-6.769-0.574-7.748-1.313C19.002,21.5,20.063,21.335,20.063,21.335L20.063,21.335z"/>
	<path fill-rule="evenodd" clip-rule="evenodd" fill="#FFFFFF" d="M27.729,25.602c2.039-0.41,18.595-4.184,23.325-5.989
		c1.386-0.411,1.875,0,2.12,0.492c0.245,0.493,0.327,1.231-0.571,1.641c-0.897,0.411-13.62,5.744-19.654,6.072
		c-2.203,0-3.983-0.814-4.975-1.313C27.321,26.176,27.565,26.176,27.729,25.602L27.729,25.602z"/>
	<path fill-rule="evenodd" clip-rule="evenodd" fill="#FFFFFF" d="M54.723,22.156c-1.876,0.902-13.293,5.743-17.697,6.728
		c-1.224,0.328-1.876,1.231-0.408,1.723c1.468,0.493,4.893,0.247,6.932-0.328c2.039-0.574,10.316-3.281,13.497-6.399
		C56.395,23.551,54.886,22.484,54.723,22.156L54.723,22.156z"/>
	<path fill-rule="evenodd" clip-rule="evenodd" fill="#FFFFFF" d="M58.148,24.946c-1.224,0.82-9.215,5.004-12.886,6.154
		c-1.223,0.41-0.652,1.559,0.571,1.723c1.223,0.164,4.322,0.164,7.992-2.052c2.202-1.313,5.464-3.692,6.443-4.594
		C59.779,25.93,58.719,25.274,58.148,24.946L58.148,24.946z"/>
	<path fill-rule="evenodd" clip-rule="evenodd" fill="#FFFFFF" d="M61.9,27.161c-2.087,1.438-6.901,4.636-7.666,5.169
		c-1.061,0.738-1.631,1.969,0.489,1.805s6.035-1.723,9.134-6.235C63.45,27.776,62.389,27.407,61.9,27.161L61.9,27.161z"/>
	<path fill-rule="evenodd" clip-rule="evenodd" fill="#FFFFFF" d="M65.57,28.392c-1.305,1.313-3.262,3.445-4.648,4.595
		c-0.897,0.902-0.245,2.543,1.305,1.805c1.55-0.738,4.363-3.281,5.097-5.825C66.752,28.802,66.1,28.638,65.57,28.392L65.57,28.392z"
		/>
	<path fill-rule="evenodd" clip-rule="evenodd" fill="#FFFFFF" d="M68.832,30.442c-1.06,1.313-2.12,2.38-2.773,3.2
		c-0.652,0.82,0.163,1.641,0.816,1.887c0.652,0.246,1.876,0.903,3.344-2.051L68.832,30.442L68.832,30.442z"/>
	<path fill-rule="evenodd" clip-rule="evenodd" fill="#FFFFFF" d="M37.189,4.105c2.12,0,9.297,0.492,11.907,0.492
		s8.645-0.164,10.847-0.328c2.202-0.164,7.992-0.246,10.276,0c2.283,0.246,7.34,0.574,8.237,2.954s-1.06,3.692-2.283,4.595
		c-1.224,0.903-4.975,3.118-5.138,8.861c-0.979-0.41-2.365-0.656-1.387-2.708c0.571-1.149,3.344-4.923,2.692-6.646
		c-0.653-1.723-2.773-3.118-7.585-3.282s-11.581,0-13.946-0.411c-2.365-0.41-11.5-2.708-13.375-2.954
		C36.618,4.598,36.618,4.188,37.189,4.105L37.189,4.105z"/>
	<path fill-rule="evenodd" clip-rule="evenodd" fill="#FFFFFF" d="M56.436,8.7c1.712,0,7.992-0.164,9.786,0.164
		c1.794,0.328,4.031,0.848,4.975,2.461c0.815,1.395-0.571,3.61-1.223,4.513c-0.653,0.902-2.528,2.708-3.262,3.364
		c-0.653,0.492-1.876-0.328-0.815-1.559c-1.387,0.82-3.099,0.656-2.284-1.231c-1.224,0.985-3.263,1.067-2.039-1.477
		c-0.815,0.656-3.099,0.575-1.631-1.395c-1.224,0.41-2.61-0.328-1.713-1.559c-1.549,0.246-2.447-0.902-0.815-1.805
		C55.865,10.587,55.457,8.782,56.436,8.7L56.436,8.7z"/>
	<path fill-rule="evenodd" clip-rule="evenodd" fill="#FFFFFF" d="M49.393,8.151c-2.141,0-2.184,2.326,0.257,2.197
		c1.924-0.102,4.239-0.56,4.196-1.335C53.803,8.237,50.977,8.194,49.393,8.151L49.393,8.151z"/>
	<path fill-rule="evenodd" clip-rule="evenodd" fill="#FFFFFF" d="M49.692,10.662c-1.199,0.216-1.242,0.775-1.071,1.206
		c0.171,0.431,0.814,1.163,2.912,0.862c2.098-0.302,3.254-1.163,3.254-1.896S50.977,10.576,49.692,10.662L49.692,10.662z"/>
	<path fill-rule="evenodd" clip-rule="evenodd" fill="#FFFFFF" d="M51.748,13.247c-0.813,0.129-1.57,0.733-1.327,1.464
		c0.299,0.905,2.141,1.164,4.196,0.129c2.055-1.034,1.927-1.292,1.712-1.852C56.115,12.428,53.974,12.859,51.748,13.247
		L51.748,13.247z"/>
	<path fill-rule="evenodd" clip-rule="evenodd" fill="#FFFFFF" d="M55.601,14.582c-0.985,0.344-2.055,0.861-2.869,1.378
		c-0.814,0.517-1.456,2.369,1.67,1.551c3.125-0.818,3.297-1.896,2.868-2.627C56.843,14.151,55.858,14.539,55.601,14.582
		L55.601,14.582z"/>
	<path fill-rule="evenodd" clip-rule="evenodd" fill="#FFFFFF" d="M54.628,18.166c-1.071,0.646-0.557,3.144,1.798,2.024
		c2.354-1.12,3.981-2.326,3.639-3.145C59.723,16.227,57.026,16.873,54.628,18.166L54.628,18.166z"/>
	<path fill-rule="evenodd" clip-rule="evenodd" fill="#FFFFFF" d="M60.833,18.769c-1.114,0.517-4.753,1.723-3.554,3.273
		c0.6,0.775,1.756,0.129,2.227-0.172c0.471-0.302,3.04-2.068,2.398-3.016C61.622,18.439,61.09,18.639,60.833,18.769L60.833,18.769z"
		/>
	<path fill-rule="evenodd" clip-rule="evenodd" fill="#FFFFFF" d="M60.584,21.663c-2.355,1.507,0.3,2.8,1.798,1.507
		c0.813-0.701,2.475-1.966,1.712-2.886C63.453,19.509,61.312,21.275,60.584,21.663L60.584,21.663z"/>
	<path fill-rule="evenodd" clip-rule="evenodd" fill="#FFFFFF" d="M64.317,22.274c-0.728,0.818-2.433,2.053-1.113,2.972
		c1.113,0.775,1.798-0.043,2.312-0.603s2.483-2.542,1.755-3.36S64.959,21.886,64.317,22.274L64.317,22.274z"/>
	<path fill-rule="evenodd" clip-rule="evenodd" fill="#FFFFFF" d="M69.298,22.59c-0.771-0.603-2.312,1.034-2.868,2.025
		c-0.557,0.99-0.128,1.55,0.428,1.809c0.557,0.259,1.542-0.301,1.755-0.861C68.827,25.002,70.068,23.365,69.298,22.59L69.298,22.59z
		"/>
	<path fill="none" stroke="#000000" stroke-width="1.0001" stroke-miterlimit="2.6131" d="M74.867,5.911
		c1.142,0.574,2.446,1.395,2.528,2.215c0.082,0.82-0.163,1.641-1.55,2.625"/>
	<path fill-rule="evenodd" clip-rule="evenodd" d="M115.645,36.433c1.468,0.82,5.546,1.969,6.688-0.657
		c1.631,0.821,5.057,1.478,6.688-0.656c2.772,0.656,5.872,1.97,7.014-1.148c2.446,0.656,8.481,2.134,9.134-1.805
		c3.589,0.492,8.809,0.82,9.461-2.954c3.099,0,8.481-0.492,8.481-4.102c3.099,0,8.481-2.133,7.829-4.595
		c2.773-0.328,6.524-3.282,6.524-5.251c2.772-0.821,5.872-2.954,5.22-5.744c1.631-0.984,4.404-2.133,4.404-3.774
		c0-1.641-1.306-2.954-2.773-2.954s-7.014,0.821-8.971,0.821c-1.958,0-25.608-0.492-31.154-0.165
		c-5.546,0.329-12.56,0.165-15.984-0.164c-3.426-0.328-18.036-1.124-20.063,2.954c-1.468,2.954-0.326,3.938,0.979,5.087
		s5.709,3.282,5.709,10.174S114.014,32.002,115.645,36.433L115.645,36.433z"/>
	<path fill-rule="evenodd" clip-rule="evenodd" fill="#FFFFFF" d="M181.867,4.434c-5.057,0-16.801,0.328-19.084,0.328
		c-2.284,0-18.432,1.805-20.96,2.625c-1.142,0.329-1.386,1.477,0,1.559c1.387,0.082,18.023,0.329,20.471,0.329
		c2.446,0,19.2,0.233,21.449-2.708C185.374,4.434,183.335,4.516,181.867,4.434L181.867,4.434z"/>
	<path fill-rule="evenodd" clip-rule="evenodd" fill="#FFFFFF" d="M178.85,10.833c-2.937,0.082-17.616,0.164-19.329,0.082
		c-1.713-0.082-15.006-0.82-16.556-0.903c-1.549-0.082-3.018,0.328-3.018,0.821c0,0.492,0.327,0.902,2.121,1.313
		s18.35,2.297,30.909,2.051c2.365,0.083,5.546-1.148,6.361-2.297C180.154,10.751,179.257,10.833,178.85,10.833L178.85,10.833z"/>
	<path fill-rule="evenodd" clip-rule="evenodd" fill="#FFFFFF" d="M173.141,16.249c-2.039,0-26.098-1.805-31.154-2.872
		c-1.712-0.164-2.854-0.246-3.018,0.492s-0.081,1.066,1.387,1.477c1.468,0.41,19.328,3.774,28.381,3.938
		C171.754,19.202,175.261,16.331,173.141,16.249L173.141,16.249z"/>
	<path fill-rule="evenodd" clip-rule="evenodd" fill="#FFFFFF" d="M167.024,21.335c-2.854-0.328-21.857-3.364-26.995-4.759
		c-2.039-0.492-3.018-0.246-3.263,0.328c-0.244,0.575-0.244,1.559,1.224,2.051c1.468,0.493,18.269,4.431,21.367,4.595
		c3.1,0.164,6.77-0.574,7.748-1.313C168.084,21.5,167.024,21.335,167.024,21.335L167.024,21.335z"/>
	<path fill-rule="evenodd" clip-rule="evenodd" fill="#FFFFFF" d="M159.357,25.602c-2.038-0.41-18.594-4.184-23.324-5.989
		c-1.387-0.411-1.876,0-2.12,0.492c-0.245,0.493-0.326,1.231,0.57,1.641c0.897,0.411,13.62,5.744,19.655,6.072
		c2.201,0,3.982-0.814,4.975-1.313C159.766,26.176,159.521,26.176,159.357,25.602L159.357,25.602z"/>
	<path fill-rule="evenodd" clip-rule="evenodd" fill="#FFFFFF" d="M132.363,22.156c1.876,0.902,13.293,5.743,17.697,6.728
		c1.224,0.328,1.876,1.231,0.407,1.723c-1.468,0.493-4.893,0.247-6.932-0.328c-2.039-0.574-10.316-3.281-13.497-6.399
		C130.691,23.551,132.2,22.484,132.363,22.156L132.363,22.156z"/>
	<path fill-rule="evenodd" clip-rule="evenodd" fill="#FFFFFF" d="M128.938,24.946c1.224,0.82,9.216,5.004,12.886,6.154
		c1.224,0.41,0.652,1.559-0.57,1.723c-1.224,0.164-4.322,0.164-7.992-2.052c-2.203-1.313-5.465-3.692-6.443-4.594
		C127.307,25.93,128.367,25.274,128.938,24.946L128.938,24.946z"/>
	<path fill-rule="evenodd" clip-rule="evenodd" fill="#FFFFFF" d="M125.187,27.161c2.087,1.438,6.901,4.636,7.666,5.169
		c1.061,0.738,1.631,1.969-0.489,1.805s-6.035-1.723-9.135-6.235C123.637,27.776,124.697,27.407,125.187,27.161L125.187,27.161z"/>
	<path fill-rule="evenodd" clip-rule="evenodd" fill="#FFFFFF" d="M121.517,28.392c1.305,1.313,3.262,3.445,4.648,4.595
		c0.896,0.902,0.245,2.543-1.305,1.805s-4.363-3.281-5.098-5.825C120.334,28.802,120.986,28.638,121.517,28.392L121.517,28.392z"/>
	<path fill-rule="evenodd" clip-rule="evenodd" fill="#FFFFFF" d="M118.254,30.442c1.061,1.313,2.121,2.38,2.773,3.2
		s-0.163,1.641-0.815,1.887c-0.653,0.246-1.876,0.903-3.344-2.051L118.254,30.442L118.254,30.442z"/>
	<path fill-rule="evenodd" clip-rule="evenodd" fill="#FFFFFF" d="M149.897,4.105c-2.12,0-9.297,0.492-11.907,0.492
		c-2.609,0-8.645-0.164-10.847-0.328s-7.992-0.246-10.275,0c-2.284,0.246-7.34,0.574-8.237,2.954s1.061,3.692,2.283,4.595
		c1.224,0.903,4.976,3.118,5.139,8.861c0.979-0.41,2.364-0.656,1.386-2.708c-0.57-1.149-3.344-4.923-2.691-6.646
		s2.772-3.118,7.585-3.282c4.812-0.164,11.581,0,13.946-0.411c2.364-0.41,11.499-2.708,13.374-2.954
		C150.468,4.598,150.468,4.188,149.897,4.105L149.897,4.105z"/>
	<path fill-rule="evenodd" clip-rule="evenodd" fill="#FFFFFF" d="M130.65,8.7c-1.713,0-7.992-0.164-9.786,0.164
		c-1.795,0.328-4.031,0.848-4.975,2.461c-0.816,1.395,0.57,3.61,1.223,4.513c0.652,0.902,2.528,2.708,3.263,3.364
		c0.652,0.492,1.875-0.328,0.815-1.559c1.386,0.82,3.099,0.656,2.283-1.231c1.224,0.985,3.263,1.067,2.039-1.477
		c0.815,0.656,3.099,0.575,1.631-1.395c1.224,0.41,2.61-0.328,1.713-1.559c1.549,0.246,2.446-0.902,0.815-1.805
		C131.222,10.587,131.629,8.782,130.65,8.7L130.65,8.7z"/>
	<path fill-rule="evenodd" clip-rule="evenodd" fill="#FFFFFF" d="M137.693,8.151c2.142,0,2.185,2.326-0.257,2.197
		c-1.924-0.102-4.238-0.56-4.195-1.335C133.284,8.237,136.109,8.194,137.693,8.151L137.693,8.151z"/>
	<path fill-rule="evenodd" clip-rule="evenodd" fill="#FFFFFF" d="M137.395,10.662c1.198,0.216,1.241,0.775,1.07,1.206
		c-0.172,0.431-0.814,1.163-2.911,0.862c-2.099-0.302-3.255-1.163-3.255-1.896S136.109,10.576,137.395,10.662L137.395,10.662z"/>
	<path fill-rule="evenodd" clip-rule="evenodd" fill="#FFFFFF" d="M135.339,13.247c0.813,0.129,1.569,0.733,1.327,1.464
		c-0.3,0.905-2.141,1.164-4.195,0.129c-2.056-1.034-1.927-1.292-1.713-1.852C130.972,12.428,133.112,12.859,135.339,13.247
		L135.339,13.247z"/>
	<path fill-rule="evenodd" clip-rule="evenodd" fill="#FFFFFF" d="M131.485,14.582c0.985,0.344,2.056,0.861,2.869,1.378
		c0.813,0.517,1.456,2.369-1.67,1.551c-3.125-0.818-3.297-1.896-2.868-2.627C130.244,14.151,131.229,14.539,131.485,14.582
		L131.485,14.582z"/>
	<path fill-rule="evenodd" clip-rule="evenodd" fill="#FFFFFF" d="M132.458,18.166c1.07,0.646,0.557,3.144-1.798,2.024
		c-2.355-1.12-3.982-2.326-3.641-3.145C127.362,16.227,130.061,16.873,132.458,18.166L132.458,18.166z"/>
	<path fill-rule="evenodd" clip-rule="evenodd" fill="#FFFFFF" d="M126.254,18.769c1.112,0.517,4.752,1.723,3.554,3.273
		c-0.6,0.775-1.756,0.129-2.227-0.172c-0.471-0.302-3.04-2.068-2.397-3.016C125.465,18.439,125.997,18.639,126.254,18.769
		L126.254,18.769z"/>
	<path fill-rule="evenodd" clip-rule="evenodd" fill="#FFFFFF" d="M126.503,21.663c2.354,1.507-0.301,2.8-1.799,1.507
		c-0.813-0.701-2.475-1.966-1.713-2.886C123.634,19.509,125.774,21.275,126.503,21.663L126.503,21.663z"/>
	<path fill-rule="evenodd" clip-rule="evenodd" fill="#FFFFFF" d="M122.77,22.274c0.728,0.818,2.432,2.053,1.113,2.972
		c-1.113,0.775-1.799-0.043-2.313-0.603s-2.483-2.542-1.755-3.36C120.543,20.465,122.127,21.886,122.77,22.274L122.77,22.274z"/>
	<path fill-rule="evenodd" clip-rule="evenodd" fill="#FFFFFF" d="M117.788,22.59c0.771-0.603,2.313,1.034,2.869,2.025
		c0.557,0.99,0.128,1.55-0.429,1.809c-0.557,0.259-1.541-0.301-1.755-0.861C118.259,25.002,117.018,23.365,117.788,22.59
		L117.788,22.59z"/>
	<path fill="none" stroke="#000000" stroke-width="1.0001" stroke-miterlimit="2.6131" d="M112.219,5.911
		c-1.142,0.574-2.446,1.395-2.527,2.215c-0.082,0.82,0.163,1.641,1.549,2.625"/>
	
		<path fill-rule="evenodd" clip-rule="evenodd" fill="#FFFFFF" stroke="#000000" stroke-width="0.3506" stroke-miterlimit="2.6131" d="
		M92.913,58.145c-1.245,0.03-2.233-0.825-2.097-2.82l0.623-8.01c0.026-0.708,1.086-1.2,1.534-1.2c0.449,0,1.509,0.492,1.535,1.2
		l0.622,8.01C95.266,57.319,94.278,58.11,92.913,58.145L92.913,58.145z"/>
	
		<path fill-rule="evenodd" clip-rule="evenodd" fill="#FFFFFF" stroke="#000000" stroke-width="0.3506" stroke-miterlimit="2.6131" d="
		M93.032,58.145c1.244,0.03,2.233-0.825,2.097-2.82l-0.622-8.01c-0.025-0.708-1.086-1.2-1.535-1.2c-0.448,0-1.508,0.492-1.534,1.2
		l-0.623,8.01C90.679,57.319,91.665,58.11,93.032,58.145L93.032,58.145z"/>
	
		<path fill-rule="evenodd" clip-rule="evenodd" fill="#FFFFFF" stroke="#000000" stroke-width="0.3506" stroke-miterlimit="2.6131" d="
		M97.742,57.961c1.234-0.155,2.086-1.148,1.657-3.102l-1.795-7.828c-0.13-0.696-1.25-1.025-1.694-0.959
		c-0.443,0.067-1.419,0.712-1.34,1.416l0.563,8.014C95.293,57.495,96.385,58.132,97.742,57.961L97.742,57.961z"/>
	
		<path fill-rule="evenodd" clip-rule="evenodd" fill="#FFFFFF" stroke="#000000" stroke-width="0.3506" stroke-miterlimit="2.6131" d="
		M102.485,57.072c1.193-0.359,1.868-1.481,1.124-3.336l-3.063-7.42c-0.242-0.666-1.401-0.803-1.828-0.663
		c-0.426,0.141-1.283,0.938-1.089,1.621l1.879,7.808C99.993,57.022,101.176,57.467,102.485,57.072L102.485,57.072z"/>
	
		<path fill-rule="evenodd" clip-rule="evenodd" fill="#FFFFFF" stroke="#000000" stroke-width="0.3506" stroke-miterlimit="2.6131" d="
		M106.985,55.728c1.132-0.522,1.646-1.729,0.651-3.461l-4.058-6.919c-0.333-0.625-1.5-0.599-1.903-0.4
		c-0.402,0.199-1.14,1.109-0.854,1.757l2.94,7.47C104.511,56.026,105.742,56.302,106.985,55.728L106.985,55.728z"/>
	
		<path fill-rule="evenodd" clip-rule="evenodd" fill="#FFFFFF" stroke="#000000" stroke-width="0.3506" stroke-miterlimit="2.6131" d="
		M88.203,57.961c-1.235-0.155-2.087-1.148-1.658-3.102l1.795-7.828c0.13-0.696,1.251-1.025,1.694-0.959
		c0.443,0.067,1.419,0.712,1.34,1.416l-0.563,8.014C90.652,57.495,89.56,58.132,88.203,57.961L88.203,57.961z"/>
	
		<path fill-rule="evenodd" clip-rule="evenodd" fill="#FFFFFF" stroke="#000000" stroke-width="0.3506" stroke-miterlimit="2.6131" d="
		M83.459,57.072c-1.192-0.359-1.868-1.481-1.123-3.336l3.061-7.42c0.242-0.666,1.402-0.803,1.829-0.663
		c0.427,0.141,1.282,0.938,1.088,1.621l-1.878,7.808C85.951,57.022,84.77,57.467,83.459,57.072L83.459,57.072z"/>
	
		<path fill-rule="evenodd" clip-rule="evenodd" fill="#FFFFFF" stroke="#000000" stroke-width="0.3506" stroke-miterlimit="2.6131" d="
		M78.959,55.728c-1.132-0.522-1.646-1.729-0.651-3.461l4.058-6.919c0.333-0.625,1.5-0.599,1.903-0.4
		c0.403,0.199,1.14,1.109,0.854,1.757l-2.94,7.47C81.434,56.026,80.202,56.302,78.959,55.728L78.959,55.728z"/>
	<path fill-rule="evenodd" clip-rule="evenodd" d="M92.972,47.285c13.758,0,24.913-8.312,24.913-18.565
		c0-10.253-11.154-18.565-24.913-18.565S68.06,18.467,68.06,28.72C68.06,38.974,79.214,47.285,92.972,47.285L92.972,47.285z"/>
	<path fill-rule="evenodd" clip-rule="evenodd" fill="#FFFFFF" d="M103.9,21.91c0-2.708-2.854-6.81-11.173-6.81
		c-4.893,0-8.971,1.23-11.417,3.528c0.571,0.492,1.223,1.231,1.223,2.051v15.015c-0.082,0.902-0.489,1.641-1.142,2.461
		c2.284,1.805,6.199,3.528,12.234,3.364s11.662-2.134,11.662-7.713c0-2.379-2.202-4.759-4.648-5.579
		c-0.652-0.164-0.55-0.811-0.041-1.067C101.087,26.915,103.941,24.699,103.9,21.91L103.9,21.91z"/>
	<path fill-rule="evenodd" clip-rule="evenodd" d="M93.054,26.58c2.102,0,3.807-1.871,3.807-4.177c0-2.307-1.705-4.177-3.807-4.177
		s-3.806,1.87-3.806,4.177C89.248,24.709,90.952,26.58,93.054,26.58L93.054,26.58z"/>
	<path fill-rule="evenodd" clip-rule="evenodd" stroke="#000000" stroke-width="0.3506" stroke-miterlimit="2.6131" d="
		M93.543,38.134c2.356,0,4.268-1.974,4.268-4.409s-1.911-4.409-4.268-4.409s-4.267,1.974-4.267,4.409S91.187,38.134,93.543,38.134
		L93.543,38.134z"/>
</g>
</svg>
