<svg xmlns="http://www.w3.org/2000/svg" viewBox="0 0 280.315 100.313"><path d="M151.303 95.999c10.158-4.189 17.323-12.083 17.323-25.533 0-16.745-13.018-27.397-29.077-27.397-16.041 0-29.058 10.653-29.058 27.397 0 16.337 11.202 25.812 25.654 27.219-32.06.631-48.233-26.074-49.062-27.219 14.664-3.376 14.093-13.314 14.093-13.314 0-13.396-18.339-13.314-22.621-13.314H60.369v53.544h9.559V72.467l4.556-.024c2.765-.055 2.751.196 5.109 3.074 4.748 5.771 11.408 14.273 21.174 19.053 8.038 3.934 15.302 5.545 22.477 5.719 7.173.165 18.702-.433 28.059-4.29M76.216 68.422h-6.288V46.904l6.157.06c7.054 0 14.443 1.677 14.443 10.155 0 9.12-7.691 11.303-14.312 11.303m63.333 25.94c-10.426 0-18.872-8.293-18.872-23.896 0-14.018 8.446-23.918 18.872-23.918 10.438 0 18.892 9.9 18.892 23.918-.001 15.603-8.454 23.896-18.892 23.896M173.489 43.71c-2.681 0-5.192 2.085-3.863 6.328l14.538 47.32h3.946l11.539-36.219 11.069 36.219h4.132l17.634-53.648h-4.926L215.34 79.706 204.097 43.71l-3.931.046-11.463 35.917L177.58 43.71h-4.091zM280.307 43.71h-4.722l.038 35.362-30.687-35.362h-9.005v53.648h4.675l.025-43.536 39.684 45.654zM44.715 91.448c-5.38 3.031-8.885 3.028-13.544 3.028-10.291 0-20.874-7.891-20.874-23.448 0-14.494 9.322-24.214 20.874-24.214 8.898 0 15.275 3.071 21.179 13.121l-.648-12.865c-7.822-3.072-13.45-4.091-20.858-4.091C14.914 42.979 0 54.885 0 71.012 0 87.978 14.725 98.28 30.65 98.28c8.751 0 14.529-.965 21.352-4.389l1.753-11.952c-2.42 4.657-5.4 7.457-9.04 9.509M105.193 22.148c0 2.139-1.76 3.898-3.925 3.898-2.182 0-3.94-1.756-3.94-3.898-.002-2.131 1.746-3.89 3.918-3.89 2.171.001 3.937 1.738 3.947 3.89M143.487 3.89c.006 2.145-1.753 3.871-3.914 3.871-2.183.014-3.934-1.721-3.938-3.868C135.628 1.748 137.391 0 139.567 0c2.154 0 3.92 1.729 3.92 3.89M139.429 11.284h-.008c-.017.073-7.786 24.464-34.047 16.519l10.76 14.483s9.025-6.345 23.287-6.372c14.276-.017 23.328 6.372 23.328 6.372l10.713-14.483c-26.226 8.005-34.006-16.446-34.033-16.519M173.47 22.007c0 2.15 1.778 3.882 3.934 3.874 2.191 0 3.937-1.75 3.931-3.874 0-2.161-1.773-3.89-3.939-3.89-2.172 0-3.926 1.748-3.926 3.89"></path></svg>