<?xml version="1.0" encoding="utf-8"?>
<!-- Generator: Adobe Illustrator 17.1.0, SVG Export Plug-In . SVG Version: 6.00 Build 0)  -->
<!DOCTYPE svg PUBLIC "-//W3C//DTD SVG 1.1//EN" "http://www.w3.org/Graphics/SVG/1.1/DTD/svg11.dtd">
<svg version="1.1" id="Layer_1" xmlns="http://www.w3.org/2000/svg" xmlns:xlink="http://www.w3.org/1999/xlink" x="0px" y="0px"
	 viewBox="0 0 176.302 54.874" enable-background="new 0 0 176.302 54.874" xml:space="preserve">
<g>
	<path d="M176.302,52.445c0,1.336-1.093,2.43-2.43,2.43H2.35c-1.336,0-2.43-1.093-2.43-2.43V2.43C-0.08,1.093,1.014,0,2.35,0
		h171.522c1.336,0,2.43,1.093,2.43,2.43V52.445z"/>
	<g>
		<path fill="#253689" d="M160.245,34.991c0.006,0.092,0.009,0.187,0.009,0.282c0-0.006,0.001-0.011,0.001-0.017
			C160.255,35.166,160.249,35.078,160.245,34.991z"/>
		<g>
			<path fill="#FFFFFF" d="M45.718,45.808c-2.959,2.84-7.338,3.49-13.788,3.49h-9.172c-12.841,0-16.924-3.017-16.924-13.428v-5.679
				h12.309c0,0.533-0.059,1.065-0.059,1.538c0,5.206,1.302,6.861,6.45,6.861h5.918c4.734,0,5.562-1.774,5.562-6.093V5.82H49.15
				v30.878C49.15,40.425,47.789,43.797,45.718,45.808z"/>
			<path fill="#FFFFFF" d="M97.094,20.904c0-3.43-2.189-4.85-6.923-4.85H79.638c-8.522,0-10.593,1.124-10.593,8.459v5.974
				c0,6.744,2.9,8.104,10.593,8.104h7.634c7.278,0,10.178-0.768,10.178-5.915c0-0.178,0-0.296,0-0.474h13.314
				c0.059,1.125,0.119,2.13,0.119,3.136c0,5.323-1.242,8.873-4.319,11.121c-3.255,2.425-8.404,2.898-15.92,2.898H75.968
				c-6.805,0-11.598-0.295-15.326-3.194c-3.61-2.839-4.971-6.743-4.971-12.6V21.851c0-12.896,5.622-16.564,20.297-16.564h14.675
				c7.516,0,12.605,0.355,15.742,2.78c2.781,2.129,3.965,5.679,3.965,10.825c0,0.769,0,1.597-0.059,2.425H97.094
				C97.094,21.201,97.094,21.023,97.094,20.904z"/>
			<path fill="#FFFFFF" d="M116.555,48.826V5.82h38.761c9.646,0,14.321,3.904,14.321,12.009c0,4.614-2.011,7.453-6.331,9.11
				c5.444,0.887,7.811,4.081,7.811,10.234c0,8.281-4.261,11.653-13.788,11.653H116.555z M156.144,19.011
				c0-2.129-1.361-3.549-3.373-3.549h-23.078v7.098h23.078C154.961,22.561,156.144,21.318,156.144,19.011z M157.564,35.101
				c0-2.306-1.421-3.786-3.609-3.786h-24.262v7.75h24.262C156.262,39.065,157.564,37.645,157.564,35.101z"/>
		</g>
	</g>
	<g>
		<rect x="5.799" y="5.823" fill="#F8B004" width="17.684" height="17.678"/>
		<g>
			<path fill-rule="evenodd" clip-rule="evenodd" d="M18.721,14.659c0,0,0.291-0.011,0.373-0.016
				c0.083-0.005,0.238-0.014,0.332,0.169c0.024,0.047,0.171,0.497,0.19,0.55c0.018,0.053,0.061,0.297-0.132,0.34
				c-0.035,0.008-0.377,0.074-0.377,0.074L18.721,14.659L18.721,14.659z M18.064,12.589c0,0,0.377,0.028,0.47,0.035
				c0.093,0.008,0.158,0.05,0.195,0.131c0.023,0.051,0.165,0.465,0.181,0.51c0.016,0.045,0.088,0.294-0.121,0.299
				c-0.032,0.001-0.407,0-0.407,0L18.064,12.589L18.064,12.589z M16.736,11.404c0,0,1.583,0.227,1.731,0.251
				c0.66,0.105,0.946,0.637,1.027,0.886c0.027,0.082,0.21,0.66,0.234,0.724c0.18,0.487-0.276,0.739-0.276,0.739
				s0.521,0.095,0.697,0.514c0,0,0.33,0.964,0.362,1.062c0.032,0.098,0.268,0.868-0.535,1.15c-0.107,0.038-1.399,0.382-1.399,0.382
				L16.736,11.404L16.736,11.404z"/>
			<path d="M10.332,10.444l2.594,0.389l0.419,1.412l-0.605-0.052c0,0,1.491,4.775,1.542,4.923c0.187,0.538,0.301,1.095-0.515,1.364
				c-0.107,0.035-0.866,0.254-0.959,0.276c-0.471,0.11-1.071,0.113-1.303-0.62l-0.948-2.952l1.165-0.082
				c0,0,0.481,1.516,0.519,1.628c0.106,0.317,0.172,0.438,0.503,0.362c0.243-0.056,0.233-0.154,0.17-0.364
				c-0.027-0.088-1.43-4.633-1.43-4.633l-0.663-0.05L10.332,10.444L10.332,10.444z"/>
			<path d="M14.2,11.006c0.113,0.018,0.947,0.15,1.088,0.173c0.141,0.023,0.917,0.15,1.123,0.865c0.051,0.176,0.46,1.434,0.46,1.434
				l-0.985-0.009c0,0-0.183-0.608-0.222-0.713c-0.095-0.256-0.101-0.322-0.397-0.366c-0.299-0.034-0.283,0.091-0.217,0.302
				c0.034,0.109,0.93,3.074,0.97,3.202c0.105,0.337,0.132,0.471,0.448,0.409c0.274-0.064,0.222-0.21,0.152-0.459
				c-0.024-0.084-0.305-0.972-0.305-0.972l0.978-0.073c0,0,0.499,1.575,0.525,1.649c0.026,0.074,0.235,0.712-0.357,0.986
				c-0.076,0.035-0.076,0.041-0.155,0.067c-0.079,0.026-0.871,0.248-0.947,0.268c-0.075,0.021-0.83,0.252-1.075-0.492
				c-0.024-0.071-1.619-5.298-1.704-5.553C13.437,11.29,13.59,10.919,14.2,11.006L14.2,11.006z"/>
			<path fill-rule="evenodd" clip-rule="evenodd" d="M9.284,9.621c0.487,0.08,8.944,1.457,9.32,1.519
				c0.376,0.063,1.007,0.152,1.272,0.938c0.051,0.153,1.199,3.585,1.245,3.734c0.046,0.149,0.38,0.933-0.563,1.225
				c-0.14,0.044-8.091,2.524-8.284,2.582c-0.193,0.058-0.944,0.373-1.253-0.712c0,0-2.428-7.692-2.539-8.039
				c-0.091-0.282-0.156-0.509-0.17-0.684C8.264,9.551,8.656,9.531,8.977,9.574C9.098,9.591,9.207,9.609,9.284,9.621L9.284,9.621z
				 M9.063,9.191c0.214,0.032,9.448,1.556,9.683,1.594c0.238,0.039,1.146,0.136,1.51,1.173c0.07,0.199,1.219,3.655,1.274,3.827
				c0.203,0.639,0.116,1.306-0.726,1.587c-0.278,0.093-8.201,2.608-8.299,2.639c-0.218,0.07-1.382,0.586-1.805-0.76
				c0,0-2.565-8.063-2.641-8.307c-0.118-0.378-0.193-0.699-0.193-0.936C7.866,8.961,8.858,9.17,9.063,9.191L9.063,9.191z"/>
		</g>
	</g>
</g>
</svg>
