<?xml version="1.0" encoding="utf-8"?>
<!-- Generator: Adobe Illustrator 15.0.0, SVG Export Plug-In . SVG Version: 6.00 Build 0)  -->
<!DOCTYPE svg PUBLIC "-//W3C//DTD SVG 1.1//EN" "http://www.w3.org/Graphics/SVG/1.1/DTD/svg11.dtd">
<svg version="1.1" id="Layer_1" xmlns="http://www.w3.org/2000/svg" xmlns:xlink="http://www.w3.org/1999/xlink" x="0px" y="0px"
	 width="115.982px" height="61.644px" viewBox="0 0 115.982 61.644" enable-background="new 0 0 115.982 61.644"
	 xml:space="preserve">
<path fill="#7B6E51" d="M53.499,43.888c0,0-3.158-0.424-3.807-0.492c-0.648-0.07-2.557-0.26-4.824-2.385
	c-2.27-2.127-2.848-2.633-3.493-2.898c0,0,6.186,0.865,8.235,2.535C51.192,41.937,53.014,43.738,53.499,43.888"/>
<path fill="#7B6E51" d="M27.588,40.113c0,0,2.012,0.711,4.945,2.4c2.928,1.691,5.016,0.631,5.312,0.535
	c0.943-0.303,2.082-0.67,2.738-0.715c0,0-1.004-0.117-2.934-1.025c-2.346-1.102-3.539-1.467-4.688-1.457
	C31.439,39.865,30.932,40.505,27.588,40.113"/>
<path fill="#7B6E51" d="M35.756,44.304c0,0,3.957,1.859,6.098,1.531c2.703-0.416,3.984-1.639,5.701-1.836
	c0,0-4.281-1.422-6.305-0.881C39.227,43.66,37.736,44.332,35.756,44.304"/>
<path fill="#7B6E51" d="M45.374,42.623c0,0-6.284-0.834-8.145-3.396c-2.068-2.852-1.834-2.902-3.121-4.098
	c0,0,2.082,1.266,3.887,1.828c1.973,0.613,3.495,2.229,3.948,2.639C42.393,40.003,44.633,42.195,45.374,42.623"/>
<path fill="#7B6E51" d="M28.926,36.66c2.205,1.725,3.52,2.359,3.52,2.359c-1.377-0.332-2.174,0.766-4.938,0.232
	c-1.354-0.262-3.336-1.635-6.006-5.369c0,0,0.248,0.275,2.895,0.615C27.018,34.833,28.926,36.66,28.926,36.66"/>
<path fill="#7B6E51" d="M47.262,7.158c0,0-1.988,0.723-5.324,1.291c-3.338,0.568-4.194,2.643-4.352,2.898
	c-0.504,0.807-1.115,1.783-1.578,2.223c0,0,0.834-0.535,2.891-1.061c2.504-0.639,3.645-1.109,4.502-1.828
	C44.536,9.728,44.489,8.939,47.262,7.158"/>
<path fill="#7B6E51" d="M38.312,9.126c0,0-4.221,1.078-5.607,2.646c-1.752,1.98-1.895,3.676-3.051,4.885c0,0,4.17-1.602,5.328-3.254
	C36.139,11.751,36.805,10.332,38.312,9.126"/>
<path fill="#7B6E51" d="M32.217,16.324c0,0,5.279-3.277,8.398-2.539c3.469,0.82,3.327,1.006,5.096,1.088
	c0,0-2.414,0.355-4.146,1.061c-1.893,0.77-4.124,0.518-4.737,0.496C36.215,16.41,33.061,16.179,32.217,16.324"/>
<path fill="#7B6E51" d="M48.938,11.513c-3.516-0.35-8.631,1.457-8.631,1.457c1.309-0.086,3.211,0.801,4.717,1.043
	c2.395,0.389,3.371-0.193,4.533-0.623c1.877-0.695,3.09-1.932,3.488-2.07C53.045,11.32,50.518,11.671,48.938,11.513"/>
<path fill="#7B6E51" d="M56.647,6.759c0,0-1.158,0.123-2.441,0.088c-1.51-0.041-4.988,0.197-6.303,0.898
	c-2.447,1.303-2.297,2.621-3.557,3.229c0,0,1.416-0.346,4.23-0.439c2.564-0.084,3.445-0.342,5.238-1.803
	C54.549,8.134,55.409,7.361,56.647,6.759"/>
<path fill="#7B6E51" d="M31.209,12.156c0,0-1.33,1.184-2.709,1.977c-2.451,1.414-3.613,1.816-5.574,6.566
	c0,0,4.936-2.477,5.867-4.32C29.975,14.041,30.4,12.896,31.209,12.156"/>
<path fill="#7B6E51" d="M60.944,43.888c0,0,3.158-0.424,3.807-0.492c0.646-0.07,2.555-0.26,4.824-2.385
	c2.268-2.127,2.846-2.633,3.49-2.898c0,0-6.184,0.865-8.232,2.535C63.25,41.937,61.426,43.738,60.944,43.888"/>
<path fill="#7B6E51" d="M86.85,40.113c0,0-2.012,0.711-4.94,2.4c-2.931,1.691-5.017,0.631-5.316,0.535
	c-0.941-0.303-2.08-0.67-2.738-0.715c0,0,1.003-0.117,2.933-1.025c2.346-1.102,3.539-1.467,4.688-1.457
	C82.999,39.865,83.509,40.505,86.85,40.113"/>
<path fill="#7B6E51" d="M78.684,44.304c0,0-3.957,1.859-6.097,1.531c-2.701-0.416-3.984-1.639-5.699-1.836
	c0,0,4.279-1.422,6.303-0.881C75.213,43.66,76.703,44.332,78.684,44.304"/>
<path fill="#7B6E51" d="M69.067,42.623c0,0,6.283-0.834,8.144-3.396c2.07-2.852,1.834-2.902,3.123-4.098
	c0,0-2.082,1.266-3.887,1.828c-1.973,0.613-3.494,2.229-3.947,2.639C72.047,40.003,69.807,42.195,69.067,42.623"/>
<path fill="#7B6E51" d="M85.555,35.466c-3.259,2.691-8.014,4.586-8.014,4.586c1.053-0.77,1.412-2.09,2.387-3.24
	c1.555-1.828,2.563-2.176,3.608-2.41c1.968-0.441,3.753-0.336,4.425-0.174C87.961,34.228,86.641,34.566,85.555,35.466"/>
<path fill="#7B6E51" d="M85.514,36.66c-2.205,1.725-3.521,2.359-3.521,2.359c1.376-0.332,2.173,0.766,4.938,0.232
	c1.354-0.262,3.338-1.635,6.006-5.369c0,0-0.248,0.275-2.895,0.615C87.422,34.833,85.514,36.66,85.514,36.66"/>
<path fill="#7B6E51" d="M89.176,20.421c0,0-2.658-1.645-3.191-1.994s-2.093-1.391-5.223-1.229c-3.133,0.164-3.906,0.18-4.568-0.025
	c0,0,2.928,2.213,8.668,2.957C86.606,20.357,88.684,20.441,89.176,20.421"/>
<path fill="#7B6E51" d="M67.178,7.158c0,0,1.99,0.723,5.326,1.291c3.335,0.568,4.193,2.643,4.351,2.898
	c0.504,0.807,1.113,1.783,1.576,2.223c0,0-0.832-0.535-2.891-1.061c-2.501-0.639-3.642-1.109-4.5-1.828
	C69.905,9.728,69.954,8.939,67.178,7.158"/>
<path fill="#7B6E51" d="M76.129,9.126c0,0,4.221,1.078,5.609,2.646c1.75,1.98,1.89,3.676,3.048,4.885c0,0-4.171-1.602-5.327-3.254
	C78.301,11.751,77.635,10.332,76.129,9.126"/>
<path fill="#7B6E51" d="M82.224,16.324c0,0-5.278-3.277-8.397-2.539c-3.471,0.82-3.328,1.006-5.096,1.088
	c0,0,2.414,0.355,4.145,1.061c1.894,0.77,4.123,0.518,4.738,0.496C78.227,16.41,81.379,16.179,82.224,16.324"/>
<path fill="#7B6E51" d="M65.502,11.513c3.518-0.35,8.633,1.457,8.633,1.457c-1.309-0.086-3.211,0.801-4.717,1.043
	c-2.396,0.389-3.371-0.193-4.533-0.623c-1.877-0.695-3.09-1.932-3.49-2.07C61.395,11.32,63.924,11.671,65.502,11.513"/>
<path fill="#7B6E51" d="M57.793,6.759c0,0,1.158,0.123,2.441,0.088c1.512-0.041,4.988,0.197,6.305,0.898
	c2.447,1.303,2.297,2.621,3.555,3.229c0,0-1.414-0.346-4.23-0.439c-2.562-0.084-3.443-0.342-5.236-1.803
	C59.893,8.134,59.032,7.361,57.793,6.759"/>
<path fill="#7B6E51" d="M83.229,12.156c0,0,1.332,1.184,2.71,1.977c2.451,1.414,3.615,1.816,5.574,6.566c0,0-4.936-2.477-5.867-4.32
	C84.466,14.041,84.038,12.896,83.229,12.156"/>
<path fill="#7B6E51" d="M66.426,44.767c-1.295-0.543-4.07-0.207-5.846,0.092c-0.209,0.025-0.717,0.098-1.471,0.277
	c-0.088,0.02-0.137,0.031-0.137,0.031c0.002,0.002,0.004,0.002,0.004,0.002c-0.5,0.125-1.098,0.295-1.783,0.525
	c-0.67-0.23-1.25-0.4-1.732-0.523c0.002-0.002,0.006-0.002,0.008-0.004c0,0-0.062-0.014-0.174-0.037
	c-0.801-0.197-1.305-0.262-1.473-0.279c-1.775-0.297-4.521-0.625-5.807-0.084c-2.516,1.055-3.633,1.668-4.762,1.727
	c0,0,1.832-0.066,3.432,0.199c2.539,0.42,3.742,0.809,7.379-0.848c0.557,0.131,1.09,0.271,1.6,0.418
	c-1.268,0.514-2.73,1.211-4.336,2.158c-0.506,0.297-2.557,1.674-3.057,1.527l0.973,1.396c0,0,2.883-3.021,7.748-4.672
	c5.941,1.979,8.184,4.711,8.184,4.711l0.98-1.391c-0.504,0.143-2.545-1.248-3.053-1.543c-1.725-0.996-3.248-1.717-4.541-2.24
	c0.582-0.146,1.186-0.271,1.812-0.365c3.639,1.656,4.842,1.268,7.381,0.848c1.6-0.266,3.43-0.199,3.43-0.199
	C70.057,46.435,68.942,45.822,66.426,44.767"/>
<path fill="#82868B" d="M18.973,31.603h-7.129l-0.521-2.219h0.15c0.354,0.604,0.977,0.84,2.053,0.84h3.936
	c0.453,0,0.604-0.15,0.604-0.639v-1.412c0-0.488-0.15-0.641-0.604-0.641h-4.02c-1.396,0-2.152-0.688-2.152-2.186v-2.32
	c0-1.496,0.756-2.186,2.152-2.186h7.146l0.521,2.221h-0.152c-0.354-0.605-0.975-0.842-2.051-0.842h-3.951
	c-0.455,0-0.605,0.152-0.605,0.639v1.043c0,0.488,0.15,0.639,0.605,0.639h4.018c1.396,0,2.152,0.689,2.152,2.186v2.691
	C21.125,30.916,20.369,31.603,18.973,31.603"/>
<path fill="#82868B" d="M29.129,31.603l-0.068-0.807h-0.033c-0.201,0.623-0.42,0.807-0.908,0.807h-3.598
	c-1.346,0-1.984-0.656-1.984-2.119v-4.137c0-1.16-0.303-1.26-0.756-1.512v-0.137h3.682v6.09c0,0.42,0.117,0.57,0.504,0.57h2.488
	c0.387,0,0.506-0.15,0.506-0.57v-4.441c0-1.16-0.303-1.26-0.758-1.512v-0.137h3.684v6.223c0,1.178,0.301,1.312,0.756,1.564v0.117
	H29.129z"/>
<path fill="#82868B" d="M39.869,31.603v-0.135c0.455-0.252,0.758-0.352,0.758-1.512v-4.439c0-0.422-0.119-0.572-0.506-0.572h-2.488
	c-0.387,0-0.504,0.15-0.504,0.572v4.439c0,1.16,0.303,1.26,0.756,1.512v0.135h-4.438v-0.135c0.453-0.252,0.756-0.352,0.756-1.512
	v-4.574c0-1.178-0.303-1.312-0.756-1.564v-0.119h3.514l0.066,0.809h0.033c0.203-0.621,0.422-0.809,0.908-0.809h3.6
	c1.346,0,1.982,0.656,1.982,2.119v4.139c0,1.16,0.305,1.26,0.758,1.512v0.135H39.869z"/>
<path fill="#82868B" d="M52.075,31.603h-6.508l-0.42-1.814h0.117c0.252,0.453,0.725,0.639,1.531,0.639h3.816
	c0.387,0,0.621-0.203,0.621-0.523v-0.436c0-0.32-0.234-0.521-0.621-0.521h-3.717c-1.211,0-1.799-0.689-1.799-2.152v-0.959
	c0-1.463,0.588-2.137,1.799-2.137h6.777l0.42,1.818h-0.117c-0.252-0.455-0.723-0.639-1.529-0.639h-3.969
	c-0.354,0-0.521,0.15-0.521,0.469v0.371c0,0.32,0.168,0.471,0.521,0.471h3.598c1.346,0,2.018,0.588,2.018,1.766v1.883
	C54.092,31.015,53.42,31.603,52.075,31.603"/>
<path fill="#82868B" d="M64.344,31.603h-7.061c-1.346,0-1.984-0.656-1.984-2.119V25.82c0-1.465,0.639-2.119,1.984-2.119h5.48
	c1.344,0,1.986,0.654,1.986,2.119v2.555h-6.525v1.412c0,0.422,0.117,0.572,0.504,0.572h4.404c0.809,0,1.279-0.186,1.531-0.639h0.119
	L64.344,31.603z M61.823,25.517c0-0.422-0.117-0.572-0.504-0.572h-2.59c-0.387,0-0.504,0.15-0.504,0.572v1.613h3.598V25.517z"/>
<path fill="#82868B" d="M75.104,31.603h-7.062c-1.344,0-1.982-0.656-1.982-2.119V25.82c0-1.465,0.639-2.119,1.982-2.119h5.482
	c1.345,0,1.984,0.654,1.984,2.119v2.555h-6.525v1.412c0,0.422,0.119,0.572,0.506,0.572h4.404c0.808,0,1.279-0.186,1.531-0.639h0.117
	L75.104,31.603z M72.583,25.517c0-0.422-0.119-0.572-0.504-0.572h-2.59c-0.387,0-0.506,0.15-0.506,0.572v1.613h3.6V25.517z"/>
<path fill="#82868B" d="M86.887,31.603h-3.714l-2.269-4.086l-1.162,0.891v1.549c0,1.16,0.303,1.26,0.758,1.512v0.135h-4.439v-0.135
	c0.453-0.252,0.756-0.352,0.756-1.512v-7.434c0-1.178-0.303-1.311-0.756-1.564v-0.117h3.682v5.969l3.413-2.623
	c-0.152-0.184-0.336-0.301-0.572-0.369v-0.119h3.734v0.119c-0.488,0.168-0.707,0.186-1.48,0.74l-1.699,1.227l2.556,4.643
	c0.42,0.756,0.672,0.807,1.211,1.025L86.887,31.603z"/>
<path fill="#82868B" d="M96.051,31.603h-7.062c-1.344,0-1.984-0.656-1.984-2.119V25.82c0-1.465,0.641-2.119,1.984-2.119h5.482
	c1.346,0,1.984,0.654,1.984,2.119v2.555H89.93v1.412c0,0.422,0.117,0.572,0.506,0.572h4.404c0.809,0,1.279-0.186,1.531-0.639h0.117
	L96.051,31.603z M93.53,25.517c0-0.422-0.117-0.572-0.506-0.572h-2.588c-0.389,0-0.506,0.15-0.506,0.572v1.613h3.6V25.517z"/>
<path fill="#82868B" d="M104.272,25.904c-0.252-0.455-0.723-0.623-1.529-0.623h-1.447c-0.318,0-0.504,0.15-0.504,0.42v4.221
	c0,0.775,0.303,1.295,0.758,1.547v0.137h-4.441v-0.137c0.455-0.252,0.758-0.352,0.758-1.547v-4.523c0-0.773-0.303-1.328-0.758-1.58
	v-0.117h3.396l0.119,0.855h0.033c0.084-0.637,0.455-0.855,1.363-0.855h1.865l0.523,2.203H104.272z"/>
<path fill="#7B6E51" d="M25.26,20.421c0,0,2.656-1.645,3.189-1.994s2.094-1.391,5.225-1.229c3.131,0.164,3.906,0.18,4.568-0.025
	c0,0-2.928,2.213-8.67,2.957C27.828,20.357,25.75,20.441,25.26,20.421"/>
<path fill="#7B6E51" d="M28.719,35.302c3.203,2.76,7.922,4.75,7.922,4.75c-1.039-0.791-1.369-2.119-2.322-3.287
	c-1.518-1.861-2.52-2.229-3.557-2.486c-1.963-0.48-3.748-0.412-4.424-0.264C26.338,34.015,27.65,34.382,28.719,35.302"/>
<path fill="#82868B" d="M105.288,20.593c0,0.844-0.621,1.475-1.414,1.475s-1.41-0.631-1.41-1.475c0-0.836,0.617-1.471,1.41-1.471
	S105.288,19.757,105.288,20.593 M105.688,20.593c0-1.043-0.842-1.783-1.814-1.783c-0.971,0-1.809,0.74-1.809,1.783
	c0,1.051,0.838,1.787,1.809,1.787C104.846,22.38,105.688,21.644,105.688,20.593 M104.733,21.615l-0.574-0.898
	c0.312-0.033,0.539-0.184,0.539-0.555c0-0.41-0.25-0.582-0.746-0.582h-0.773v2.035h0.332v-0.881h0.33l0.529,0.881H104.733z
	 M104.366,20.156c0,0.248-0.24,0.287-0.445,0.287h-0.41v-0.574h0.41C104.125,19.869,104.366,19.908,104.366,20.156"/>
</svg>
