<svg version="1.1" id="logo" xmlns="http://www.w3.org/2000/svg" xmlns:xlink="http://www.w3.org/1999/xlink" x="0px" y="0px"
	 viewBox="0 0 400 400" enable-background="new 0 0 400 400" xml:space="preserve">
<path fill="#00AEEF" d="M200,4.1C92.3,4.1,5,91.5,5,199.1s87.3,195,195,195s195-87.3,195-195S307.7,4.1,200,4.1z M161.2,155H147v-11
	c-6-2.6-12.2-4-18.7-4c-6.8,0-13.2,1.3-19.2,4c-5.9,2.6-11.2,6.3-15.7,10.9c-4.5,4.6-8,10-10.6,16.1c-2.6,6.1-3.9,12.6-3.9,19.4
	c0,6.8,1.3,13.3,3.9,19.4c2.6,6.1,6.1,11.4,10.6,15.9s9.7,8.1,15.7,10.7c5.9,2.6,12.3,4,19.2,4c8.9,0,17.1-2.2,24.7-6.7l8.1,11.9
	c-4.8,2.8-9.9,5-15.4,6.6c-5.5,1.6-11.2,2.4-17.4,2.4c-8.9,0-17.2-1.7-25-5c-7.8-3.4-14.6-7.9-20.4-13.8
	c-5.8-5.8-10.4-12.6-13.8-20.4c-3.4-7.8-5-16.1-5-25c0-8.9,1.7-17.2,5-25.1c3.4-7.9,7.9-14.7,13.8-20.5c5.8-5.8,12.6-10.4,20.4-13.9
	c7.8-3.4,16.1-5.1,25-5.1c6.1,0,11.9,0.8,17.4,2.3c5.5,1.6,10.6,3.8,15.6,6.7V155z M337.1,141.5h-15.7V239h15.7v14.2h-43.6V239h13
	v-70.4c0.1-1,0.2-1.9,0.3-2.9c0.1-1,0.1-1.9,0.3-2.9c-1,1.3-1.9,2.7-2.9,4.1c-1,1.4-1.9,2.8-2.9,4.1c-7.2,10.2-14.8,20.2-22.6,30
	c-7.9,9.8-15.6,19.7-23.2,29.6l-48.2-63l-3.2-4.9c0.1,1,0.2,1.9,0.3,2.9c0.1,1,0.1,1.9,0.3,2.9V239h13v14.2H174V239h15.7v-97.6H174
	v-14.2h20.2c10.3,13.3,20.5,26.6,30.6,39.9c10.1,13.3,20.3,26.5,30.6,39.9c10.3-13.3,20.6-26.6,30.7-39.9
	c10.2-13.3,20.4-26.6,30.7-39.9h20.2V141.5z"/>
</svg>
